<?xml version="1.0" standalone="no"?>
<!DOCTYPE svg PUBLIC "-//W3C//DTD SVG 20010904//EN"
 "http://www.w3.org/TR/2001/REC-SVG-20010904/DTD/svg10.dtd">
<svg version="1.0" xmlns="http://www.w3.org/2000/svg"
 width="512.000000pt" height="512.000000pt" viewBox="0 0 512.000000 512.000000"
 preserveAspectRatio="xMidYMid meet">
<metadata>
Created by potrace 1.11, written by Peter Selinger 2001-2013
</metadata>
<g transform="translate(0.000000,512.000000) scale(0.100000,-0.100000)"
fill="#000000" stroke="none">
<path d="M2285 4996 c14 -10 13 -12 -7 -11 -13 1 -29 5 -36 9 -7 4 -12 3 -12
-3 0 -5 -12 -9 -27 -7 -16 1 -34 -2 -40 -7 -9 -6 -13 -5 -13 3 0 7 -9 2 -21
-11 -11 -13 -18 -19 -15 -12 4 6 2 14 -4 18 -5 3 -10 1 -10 -6 0 -7 -3 -9 -7
-6 -3 4 -13 1 -21 -6 -13 -10 -14 -9 -7 3 8 13 7 13 -8 1 -10 -8 -20 -11 -24
-7 -3 3 -18 -1 -31 -10 -23 -15 -25 -15 -19 0 5 13 3 14 -13 4 -10 -7 -17 -15
-15 -18 2 -4 -10 -4 -27 -2 -24 4 -29 2 -23 -9 7 -11 4 -10 -10 1 -15 12 -17
12 -10 1 6 -11 3 -13 -13 -9 -14 4 -20 2 -15 -5 4 -6 0 -8 -10 -4 -9 3 -19 2
-22 -4 -4 -5 -11 -7 -16 -4 -5 4 -9 1 -9 -6 0 -8 -5 -7 -17 2 -11 10 -14 10
-9 2 7 -13 4 -14 -35 -17 -11 0 -27 -10 -35 -20 -10 -14 -14 -16 -14 -5 0 9
-3 10 -8 3 -4 -6 -15 -10 -25 -8 -13 2 -17 -2 -13 -13 4 -11 2 -13 -9 -9 -8 3
-30 -3 -48 -13 -17 -10 -38 -16 -46 -13 -9 3 -11 0 -6 -8 6 -10 4 -12 -8 -7
-9 3 -18 0 -21 -9 -3 -9 -11 -12 -17 -8 -6 3 -15 1 -19 -7 -8 -11 -26 -18 -57
-21 -7 -1 -11 -6 -10 -12 1 -6 -8 -12 -21 -14 -17 -3 -22 -8 -17 -20 5 -13 3
-14 -6 -5 -9 9 -15 8 -28 -6 -9 -9 -12 -11 -7 -4 14 21 -1 15 -24 -9 -11 -12
-20 -18 -20 -12 0 5 -5 2 -10 -6 -5 -8 -15 -15 -22 -15 -7 -1 -12 -6 -11 -11
1 -6 -5 -11 -13 -12 -8 -1 -20 -3 -28 -4 -8 -1 -12 -8 -9 -15 3 -8 2 -13 -3
-12 -15 4 -44 -13 -39 -22 3 -4 -3 -6 -14 -4 -14 3 -18 -1 -14 -11 3 -8 2 -14
-3 -13 -21 4 -35 -2 -29 -11 3 -5 -1 -10 -10 -10 -8 0 -18 -7 -22 -16 -3 -8
-12 -13 -20 -10 -8 3 -11 1 -8 -4 3 -6 -1 -10 -10 -10 -9 0 -13 -4 -10 -10 3
-5 -1 -10 -9 -10 -9 0 -16 -7 -16 -15 0 -8 -3 -14 -7 -14 -20 3 -34 -2 -28
-10 7 -12 -29 -33 -39 -23 -4 3 -4 -2 0 -12 5 -13 4 -17 -3 -13 -6 4 -14 0
-17 -9 -3 -9 -11 -12 -18 -8 -8 5 -7 0 2 -11 8 -10 10 -16 3 -12 -18 11 -42
-3 -36 -20 4 -10 2 -14 -4 -10 -11 7 -43 -27 -43 -45 0 -6 -3 -8 -6 -5 -9 9
-45 -33 -38 -45 3 -4 2 -8 -3 -7 -15 4 -43 -13 -37 -22 3 -5 0 -9 -6 -9 -6 0
-8 -5 -4 -12 5 -8 2 -9 -10 -5 -9 4 -15 3 -11 -2 3 -5 -8 -23 -25 -39 -16 -17
-30 -38 -30 -46 0 -9 -3 -15 -7 -15 -20 3 -26 -2 -13 -11 13 -8 12 -10 -2 -10
-10 0 -18 -5 -18 -11 0 -5 -4 -8 -9 -5 -5 4 -8 -5 -6 -19 2 -21 -1 -24 -16
-20 -14 5 -17 2 -14 -14 2 -11 -1 -24 -7 -27 -7 -4 -8 -2 -4 4 4 7 5 12 2 12
-11 0 -37 -61 -30 -72 4 -7 3 -8 -4 -4 -7 4 -12 1 -12 -8 0 -8 -8 -20 -17 -25
-10 -6 -14 -11 -9 -11 5 0 -1 -9 -14 -20 -13 -11 -17 -20 -10 -20 7 0 2 -9
-11 -20 -21 -18 -22 -19 -4 -14 19 5 19 5 -1 -8 -12 -7 -19 -18 -17 -25 2 -6
-1 -15 -8 -19 -8 -5 -9 -3 -4 6 5 8 4 11 -3 7 -5 -4 -8 -15 -5 -26 3 -12 -3
-24 -17 -34 -15 -11 -18 -16 -8 -20 11 -4 11 -6 0 -6 -7 -1 -10 -6 -6 -13 5
-7 2 -9 -8 -6 -8 4 -15 1 -15 -7 0 -8 7 -11 16 -8 11 4 10 1 -3 -9 -12 -9 -17
-21 -13 -32 4 -9 2 -16 -3 -16 -6 0 -10 6 -11 13 -1 6 -5 -4 -10 -23 -4 -19
-6 -40 -4 -47 2 -7 -2 -10 -9 -7 -17 7 -26 -28 -13 -51 7 -12 6 -16 -1 -11
-12 7 -35 -28 -25 -38 3 -3 1 -6 -7 -6 -10 0 -10 -3 0 -15 10 -12 10 -15 -3
-15 -10 0 -15 -7 -12 -20 2 -11 -1 -20 -7 -20 -6 0 -8 -11 -6 -25 3 -14 1 -28
-5 -32 -6 -3 -7 -1 -3 5 11 18 0 14 -15 -5 -12 -14 -12 -16 0 -8 11 6 13 3 7
-16 -4 -13 -8 -31 -8 -39 -1 -8 -5 -18 -10 -21 -13 -8 -19 -51 -6 -43 6 4 6
-2 -1 -15 -7 -12 -9 -25 -6 -30 3 -5 -1 -11 -7 -14 -10 -3 -10 -7 0 -19 10
-13 10 -18 1 -24 -8 -5 -9 -3 -4 6 6 9 4 11 -4 6 -7 -5 -10 -14 -7 -21 3 -8 0
-16 -7 -19 -9 -3 -9 -5 1 -5 6 -1 12 -6 12 -12 0 -5 -4 -8 -9 -5 -4 3 -7 -7
-5 -22 1 -14 -3 -30 -9 -34 -9 -6 -9 -8 1 -8 19 0 14 -20 -5 -20 -17 -1 -17
-1 0 -11 22 -13 22 -29 0 -30 -12 0 -13 -2 -5 -6 10 -4 10 -8 0 -21 -11 -13
-11 -15 2 -7 12 6 13 5 3 -6 -18 -19 -16 -32 5 -25 16 6 16 5 0 -8 -16 -12
-18 -34 -18 -195 0 -119 3 -180 10 -176 5 3 10 1 10 -4 0 -6 -4 -11 -10 -11
-5 0 -10 -7 -10 -16 0 -9 5 -12 13 -8 9 6 9 5 0 -7 -9 -12 -10 -18 -1 -27 6
-6 12 -36 13 -65 1 -30 5 -59 9 -65 3 -6 1 -12 -5 -14 -6 -2 -1 -16 13 -33 18
-25 19 -27 3 -15 -19 15 -19 15 -1 -14 10 -16 13 -25 7 -22 -6 4 -11 2 -11 -3
0 -6 4 -11 9 -11 6 0 10 -8 10 -17 1 -40 5 -53 14 -53 5 0 4 -7 -3 -15 -10
-12 -10 -15 3 -15 11 0 14 -6 11 -15 -4 -8 0 -23 7 -32 8 -10 9 -14 2 -10 -6
4 -15 2 -19 -4 -4 -7 -3 -9 4 -5 15 9 41 -48 30 -67 -6 -12 -3 -19 13 -28 17
-9 19 -13 8 -20 -10 -6 -11 -9 -1 -9 8 0 11 -9 8 -26 -4 -23 -3 -24 11 -12 12
9 15 9 9 1 -4 -8 -2 -13 4 -13 6 0 8 -5 5 -10 -4 -6 -12 -8 -18 -4 -7 3 -2 -3
11 -13 18 -15 20 -21 10 -32 -10 -11 -10 -12 0 -7 6 4 12 4 13 -1 3 -29 10
-47 26 -66 12 -14 13 -18 3 -12 -13 8 -13 6 -2 -8 8 -9 11 -21 7 -26 -3 -7 0
-8 9 -5 11 4 14 0 11 -15 -2 -12 1 -21 6 -21 6 0 7 -4 4 -10 -3 -5 1 -10 9
-10 9 0 16 -5 16 -11 0 -5 -6 -7 -12 -3 -7 5 0 -9 15 -29 16 -21 26 -44 23
-52 -3 -9 0 -12 9 -9 10 4 13 0 10 -14 -2 -13 3 -22 16 -25 13 -3 17 -11 13
-21 -3 -9 -2 -16 3 -16 5 0 20 -22 34 -50 13 -27 29 -50 36 -50 7 0 10 -7 6
-17 -4 -11 -3 -14 5 -9 7 4 12 1 12 -8 0 -9 5 -16 10 -16 6 0 10 -5 10 -11 0
-16 26 -39 36 -31 5 4 2 -2 -6 -12 -8 -11 -10 -17 -3 -13 7 5 17 -2 24 -15 7
-13 26 -36 43 -52 17 -16 24 -25 16 -20 -9 5 -1 -4 17 -19 18 -16 33 -34 33
-39 0 -14 139 -152 167 -167 13 -6 23 -18 23 -26 0 -9 6 -12 17 -8 11 4 14 3
9 -5 -4 -7 3 -17 18 -24 14 -6 26 -17 26 -25 0 -7 4 -12 10 -10 5 1 20 -9 32
-23 13 -14 21 -21 18 -15 -3 6 3 3 12 -8 10 -10 23 -15 29 -11 8 5 10 2 6 -9
-4 -11 3 -18 24 -26 16 -5 29 -14 29 -20 0 -5 10 -13 23 -16 12 -4 31 -17 42
-29 11 -12 16 -16 11 -9 -6 10 -4 12 8 7 9 -3 16 -10 16 -14 0 -5 9 -12 20
-15 11 -4 17 -11 14 -17 -5 -7 -1 -9 9 -5 10 4 17 2 17 -4 0 -6 7 -8 16 -5 8
3 13 2 10 -3 -3 -5 8 -14 24 -21 17 -7 30 -17 30 -23 0 -6 3 -8 6 -4 4 3 19 0
34 -8 15 -8 31 -11 34 -7 4 3 4 -1 0 -11 -5 -13 -2 -16 10 -11 9 3 16 1 16 -5
0 -6 7 -8 17 -4 11 4 14 3 9 -5 -7 -12 1 -15 37 -15 9 0 17 -3 17 -8 0 -10 39
-24 78 -28 7 0 11 -5 8 -10 -3 -5 3 -11 14 -14 13 -3 18 -1 13 6 -4 8 -2 8 9
0 8 -7 19 -9 23 -5 5 4 5 2 2 -4 -4 -7 0 -15 9 -18 22 -8 26 -8 19 4 -3 6 1 7
9 4 9 -3 16 -10 16 -16 0 -5 4 -7 9 -3 5 3 17 -2 25 -11 12 -11 16 -12 16 -2
0 10 2 10 8 0 5 -7 18 -14 31 -17 12 -2 19 0 16 5 -3 5 -1 12 5 15 6 4 10 3 9
-2 -4 -25 3 -35 21 -30 11 3 20 1 20 -4 0 -4 7 -6 15 -3 9 4 15 1 15 -7 0 -8
6 -5 15 7 15 19 15 19 8 0 -5 -15 -3 -18 10 -13 9 3 19 2 23 -4 3 -5 13 -9 22
-7 10 1 28 -4 42 -12 23 -12 24 -12 11 4 -13 16 -12 16 12 5 15 -7 27 -17 27
-23 0 -6 5 -4 10 4 8 12 11 13 19 1 6 -10 10 -10 16 -2 5 9 13 8 31 -4 13 -8
24 -11 24 -5 0 11 63 1 68 -12 2 -4 16 -8 30 -8 21 0 24 2 12 10 -9 6 -10 10
-3 10 6 0 15 -5 18 -10 4 -6 74 -10 176 -10 119 0 168 3 164 11 -4 6 2 5 13
-2 17 -11 24 -10 38 2 11 9 15 9 10 2 -4 -7 -2 -13 3 -13 6 0 11 6 11 13 0 8
4 7 10 -3 9 -14 14 -7 11 15 -1 6 6 1 14 -9 13 -18 20 -15 16 7 -1 4 8 3 19
-3 11 -6 20 -7 20 -2 0 5 14 8 30 7 17 -1 30 2 30 9 0 7 3 6 9 -2 6 -10 10
-10 20 1 7 9 21 13 32 10 12 -4 25 0 30 8 7 12 9 12 9 0 0 -11 3 -11 17 0 15
12 16 12 8 -1 -6 -10 -2 -9 12 3 14 12 23 15 28 8 3 -6 11 -11 16 -11 6 0 7 5
3 12 -5 8 0 9 14 6 12 -4 20 -3 17 2 -8 12 53 18 66 6 9 -8 10 -8 6 0 -6 11
27 28 47 25 4 -1 15 4 24 11 13 11 15 11 8 -2 -4 -8 -1 -7 7 3 13 16 39 24 85
26 7 1 11 5 8 10 -4 5 2 8 11 6 10 -1 26 7 36 19 15 18 16 18 11 2 -7 -18 -6
-18 19 -1 14 9 31 14 37 10 5 -3 10 -2 10 4 0 6 10 15 21 22 15 8 19 8 15 0
-11 -17 0 -13 20 6 18 18 21 19 49 22 8 0 15 8 15 16 0 14 11 19 36 16 6 -1
17 6 24 14 10 12 16 13 28 3 13 -11 15 -10 9 4 -6 17 -3 19 33 22 8 1 14 9 14
19 -1 9 3 14 8 11 5 -3 20 4 33 16 13 12 28 19 34 15 6 -3 14 1 17 10 4 9 13
14 20 11 7 -3 16 4 19 15 4 10 11 17 16 14 5 -4 9 -1 9 5 0 6 5 8 10 5 6 -3
10 1 10 10 0 9 5 13 11 10 5 -4 18 2 28 14 10 11 21 18 25 14 3 -3 6 -1 6 6 0
7 5 9 12 5 7 -4 8 -3 4 4 -4 6 4 16 16 23 13 7 29 19 36 28 8 10 11 10 6 2 -5
-9 -3 -12 4 -7 7 4 12 14 12 23 0 9 6 13 14 10 8 -3 18 5 25 19 6 14 16 22 21
19 9 -6 14 8 11 28 -1 5 3 6 9 2 6 -3 22 3 36 14 15 12 21 21 14 21 -16 0 -3
15 13 15 7 1 11 7 9 14 -2 9 4 12 18 8 12 -3 18 -1 14 5 -4 6 9 25 29 43 20
18 33 36 30 39 -4 3 -1 6 6 6 7 0 9 4 6 10 -4 6 1 7 11 3 14 -5 16 -3 11 11
-4 10 -3 15 3 11 5 -3 14 4 20 15 6 11 16 17 22 14 7 -4 8 -3 4 4 -8 13 29 53
40 44 5 -4 2 2 -6 12 -8 11 -10 17 -5 14 6 -3 19 4 30 15 12 11 14 17 5 13 -8
-4 -4 2 10 14 14 13 24 29 22 37 -2 8 0 13 5 10 4 -2 19 10 33 27 13 17 18 27
9 21 -8 -6 -7 -3 3 6 9 9 14 20 10 24 -4 5 0 6 9 3 13 -5 15 -1 11 19 -3 18
-1 24 7 19 6 -4 11 -1 11 8 0 9 4 16 9 16 5 0 12 11 15 25 4 16 11 23 18 19 6
-4 8 -3 5 3 -4 6 0 16 8 23 8 7 15 17 15 23 0 6 -7 2 -16 -9 -15 -18 -15 -17
-1 6 9 14 21 24 29 22 7 -2 10 0 6 4 -4 4 -2 14 5 22 10 13 9 14 -3 7 -9 -5
-8 0 4 13 11 12 15 22 10 22 -5 0 -1 7 10 15 10 8 15 19 11 26 -5 7 2 20 16
31 13 11 17 16 9 12 -13 -7 -13 -5 -1 9 7 9 10 17 5 17 -5 0 -1 5 8 11 10 5
15 16 12 24 -4 8 -1 15 5 15 6 0 8 7 4 17 -4 11 -3 14 5 9 11 -7 16 15 15 61
0 6 5 9 12 7 7 -3 11 4 10 18 -1 13 5 29 12 36 10 11 11 17 2 28 -9 11 -8 15
5 20 9 3 16 11 15 18 -3 23 1 37 9 32 5 -3 9 1 9 9 0 8 -5 11 -11 8 -6 -4 -5
0 1 9 7 8 10 18 6 21 -3 4 -2 7 3 7 5 0 10 9 11 20 1 13 -2 18 -10 13 -7 -4
-5 1 3 12 8 10 14 21 13 24 -1 3 1 8 4 11 4 3 3 0 -1 -7 -3 -6 -2 -14 3 -17 5
-4 7 7 4 25 -3 22 -1 29 7 24 9 -5 9 -2 2 11 -11 23 -5 47 11 37 7 -4 5 2 -3
12 -14 17 -13 18 4 11 20 -7 20 -7 0 15 -10 12 -13 19 -5 14 11 -6 13 -4 8 8
-4 10 -2 17 5 17 7 0 6 5 -2 15 -7 9 -8 15 -2 15 5 0 9 22 8 50 -1 28 2 50 7
50 5 0 6 -8 2 -18 -5 -13 -4 -14 6 -5 10 10 9 17 -6 33 -16 18 -17 20 -2 14
10 -3 17 -1 17 5 0 6 -4 11 -10 11 -5 0 -10 5 -10 11 0 5 5 7 10 4 8 -5 10 58
8 202 -2 166 -6 207 -16 205 -8 -1 -11 2 -7 8 3 6 11 8 16 5 16 -10 10 17 -8
37 -14 15 -14 18 -2 13 10 -4 16 0 16 9 0 8 -4 13 -9 10 -8 -5 -10 -1 -11 44
0 15 -5 30 -11 34 -7 5 -6 8 3 8 11 0 11 3 0 17 -12 15 -12 16 1 8 12 -7 12
-4 -1 11 -9 10 -15 31 -14 47 2 15 0 27 -4 27 -5 0 -7 14 -6 30 1 17 -1 30 -5
30 -4 0 -10 9 -13 19 -3 15 -1 18 12 14 13 -4 13 -3 -1 7 -10 6 -18 23 -18 40
0 39 -9 60 -27 60 -8 0 -11 5 -8 10 4 6 12 7 18 3 7 -4 4 6 -7 21 -11 18 -13
25 -5 21 8 -5 6 1 -4 13 -11 11 -16 26 -12 31 3 6 1 11 -5 11 -7 0 -10 6 -7
14 3 8 -1 17 -10 20 -13 5 -13 9 -2 23 10 12 10 14 2 9 -9 -5 -13 0 -13 14 0
12 -7 28 -15 36 -8 8 -12 21 -9 29 4 8 -1 18 -10 21 -9 3 -13 10 -10 15 3 5 0
9 -7 9 -7 0 -9 3 -6 7 4 3 1 13 -6 21 -9 13 -9 14 1 8 17 -10 15 -1 -4 18 -9
9 -17 24 -19 34 -1 9 -7 16 -12 15 -6 -1 -10 8 -9 20 0 12 -4 21 -11 20 -8 -2
-10 4 -6 14 4 10 2 14 -4 10 -6 -4 -10 4 -10 20 0 14 -9 33 -20 42 -11 9 -27
33 -37 54 -9 20 -21 37 -26 37 -5 0 -6 7 -3 17 4 11 3 14 -5 9 -7 -4 -12 -1
-12 9 0 9 -4 14 -9 10 -6 -3 -8 4 -6 15 2 13 -1 20 -11 20 -8 0 -14 7 -14 15
0 8 -5 15 -11 15 -6 0 -9 7 -5 15 7 18 -10 20 -18 3 -3 -7 -5 -4 -3 7 1 11
-11 33 -28 50 -16 16 -29 35 -27 42 2 7 -4 13 -13 13 -8 0 -15 6 -15 13 0 18
-65 79 -74 70 -4 -5 -7 -3 -6 2 4 20 0 36 -9 31 -5 -3 -12 6 -15 20 -6 22 -9
24 -23 12 -15 -11 -16 -10 -11 10 5 17 2 22 -14 22 -10 0 -16 5 -13 10 3 6 2
10 -4 10 -5 0 -13 9 -16 21 -5 16 -10 18 -21 8 -11 -9 -14 -7 -14 10 0 13 -6
21 -16 21 -10 0 -14 5 -10 16 3 8 2 13 -3 10 -5 -3 -19 3 -31 14 -13 11 -27
20 -32 20 -4 0 -8 5 -8 11 0 5 5 7 12 3 6 -4 8 -3 4 4 -3 6 -15 9 -26 7 -13
-3 -17 1 -13 11 3 8 2 14 -3 13 -20 -3 -35 2 -29 10 3 5 1 12 -5 16 -5 3 -10
0 -11 -7 0 -7 -5 -3 -11 10 -6 12 -17 22 -25 22 -7 0 -13 5 -13 12 0 6 -3 8
-7 5 -3 -4 -13 2 -20 13 -10 13 -21 19 -33 15 -13 -4 -17 -1 -16 12 0 10 -7
19 -19 21 -11 2 -22 7 -25 11 -9 12 -65 45 -72 43 -5 -1 -8 2 -8 7 0 5 -12 16
-26 26 -15 9 -24 12 -20 7 3 -6 1 -14 -5 -18 -7 -4 -9 -3 -6 3 4 6 -3 19 -15
29 -12 11 -18 13 -14 6 5 -8 -10 -4 -32 9 -22 13 -38 28 -34 34 3 5 -2 4 -12
-4 -15 -12 -17 -12 -14 0 2 9 -4 13 -16 11 -14 -3 -17 1 -13 13 5 12 3 14 -10
7 -11 -7 -21 -5 -31 4 -7 8 -17 12 -22 9 -4 -3 -10 2 -13 10 -4 8 -15 12 -26
10 -12 -2 -28 3 -36 11 -8 9 -19 12 -25 9 -5 -3 -10 1 -10 11 0 13 -3 14 -15
4 -12 -10 -15 -9 -16 6 0 12 -3 14 -6 6 -4 -11 -9 -10 -26 1 -32 20 -103 38
-121 31 -11 -4 -16 -1 -16 10 0 17 -8 19 -52 16 -16 -1 -28 3 -28 8 0 6 -7 13
-16 16 -15 6 -15 4 -3 -11 13 -17 13 -17 -13 0 -16 10 -28 15 -28 12 0 -3 -9
-1 -20 5 -15 8 -20 8 -20 -2 -1 -9 -4 -8 -10 2 -5 10 -22 15 -44 15 -20 -1
-36 1 -36 4 0 3 -19 6 -43 6 -48 -1 -69 4 -63 14 3 4 -8 7 -24 6 -22 0 -26 -3
-18 -12 15 -19 2 -16 -17 4 -14 14 -20 14 -37 4 -11 -7 -17 -8 -13 -2 10 17
-327 15 -344 -1 -8 -8 -11 -8 -8 -2 4 7 -3 12 -18 12 -22 0 -24 -3 -13 -17 11
-14 11 -14 -3 -4 -9 7 -20 9 -24 5 -5 -4 -5 -2 -2 4 4 7 -3 12 -18 12 -22 0
-23 -2 -10 -12z m2395 -1236 c0 -5 -2 -10 -4 -10 -3 0 -8 5 -11 10 -3 6 -1 10
4 10 6 0 11 -4 11 -10z"/>
<path d="M3825 489 c-4 -6 -5 -12 -2 -15 2 -3 7 2 10 11 7 17 1 20 -8 4z"/>
</g>
</svg>
